<svg width="57" height="61" viewBox="0 0 57 61" fill="none" xmlns="http://www.w3.org/2000/svg">
<g clip-path="url(#clip0_181_2830)">
<path d="M34.1835 8.14098C34.302 8.32225 34.457 8.4819 34.4733 8.66399C34.6471 9.19657 35.1421 9.51337 35.202 10.058C35.2225 10.2368 35.4608 10.3083 35.584 10.3898C35.7171 10.5582 35.6262 10.7498 35.8838 11.0026C36.0036 11.0791 35.9103 11.2728 35.9337 11.4524C36.0518 11.5322 36.1812 11.6108 36.3026 11.6907C37.4095 13.4135 37.518 15.4157 36.2323 17.2708C36.0242 17.4741 35.8282 17.7656 35.7436 18.0491C35.6422 18.1509 35.4274 18.2611 35.3189 18.3613C35.3441 18.5442 35.4638 18.6228 35.5987 18.7929C35.0425 18.938 34.9797 19.3986 34.5538 19.7154C34.4399 19.7223 34.2154 19.7446 34.1015 19.7545C33.7903 20.0609 33.4607 20.1802 33.1374 20.3948C33.0381 20.4954 33.0653 20.7656 33.0754 20.8571C32.5477 21.2707 31.775 21.5264 30.9688 21.5094C30.8557 21.5206 30.7724 21.8012 30.6597 21.8116C30.0889 21.8669 29.4004 21.839 28.8325 21.8914C28.5955 21.8203 28.4623 21.6532 28.2231 21.5821C27.997 21.6049 27.7717 21.6241 27.5346 21.5568C27.1627 21.3144 26.6975 21.2682 26.3343 21.1186C26.0977 21.047 25.6655 21.2707 25.4184 21.1128C24.6529 20.4517 23.8978 19.7916 23.4739 19.0993C23.1971 18.6695 22.7201 18.5285 22.5576 18.0883C22.5383 17.9066 22.6234 17.6264 22.3867 17.5549C21.9122 17.4172 22.1082 17.125 22.0759 16.8535C21.934 16.5953 21.9139 16.4136 21.6567 16.1613C21.5097 15.9023 21.6974 15.5189 21.5453 15.1668C21.5376 15.077 21.6417 14.9739 21.6312 14.8853C21.454 14.3536 21.7371 13.7786 21.6886 13.3267C21.6534 13.0564 21.7279 12.6831 21.8113 12.4016C22.0935 11.8258 22.3616 11.1622 22.8692 10.5653C22.8591 10.4767 22.8398 10.2967 22.8311 10.2061C22.9337 10.1034 23.048 10.0947 23.1489 9.99156C23.329 9.51927 23.5158 9.13598 23.8144 8.74433C24.2198 8.25 24.8594 7.8247 25.3791 7.3183C25.686 7.01522 26.1224 6.79404 26.4093 6.30639C26.517 6.20744 26.8771 6.35716 26.9827 6.2569C27.2905 5.95341 27.7537 6.00122 28.0757 5.78794C28.3965 5.57716 28.3333 6.0374 28.6625 5.91558C28.8907 5.89394 28.9933 5.79501 29.2086 5.68027C29.5407 5.55928 29.9139 5.7975 30.2636 5.85821C30.6032 5.8266 30.9525 5.88605 31.3256 6.12595C31.8207 6.444 32.956 6.33632 33.1374 6.96116C33.4155 7.3898 33.9071 7.71201 34.1835 8.14102L34.1835 8.14098Z" fill="white"/>
<path d="M53.4026 15.2915C53.3926 15.0101 53.4026 14.8383 53.2904 14.539C53.2582 14.2588 53.4835 13.9453 53.3867 13.5586C53.3222 13.4555 53.1773 13.3316 53.1962 13.2435C53.3867 12.6523 53.4014 12.1077 53.3545 11.4612C53.308 11.2666 53.2418 11.1619 53.1773 11.0558C53.1907 10.969 53.2242 10.7943 53.2565 10.6214C53.2728 10.078 53.0961 9.67596 52.9365 9.18457C52.888 8.99457 52.7405 8.87109 52.7091 8.59171C52.6463 8.48611 52.5014 8.36138 52.516 8.27575C52.6609 7.48709 52.2744 6.85636 52.1605 6.10557C51.9854 5.24661 51.1667 4.70451 50.9078 3.83015C50.9191 3.74326 51.1888 3.77939 51.2705 3.79854C51.9104 4.39306 52.6198 5.09111 52.8 5.95001C52.9109 6.24894 52.8628 6.50961 52.9947 6.71957C53.5358 7.38396 53.6342 8.22332 53.7306 9.06396C53.7146 9.15292 53.893 9.09761 53.9542 9.20656C53.9442 9.2922 53.9106 9.46639 53.9751 9.57283C54.3922 10.0277 54.1359 10.5158 54.2163 10.9888C54.2662 11.1834 54.3277 11.2853 54.3922 11.3913C54.3759 11.4802 54.1682 11.7093 54.1506 11.795C54.4902 12.2328 54.6351 12.8094 54.5396 13.3333C54.9262 13.5124 54.752 14.0163 54.8424 14.4026C54.9074 14.5086 54.9907 14.5265 55.0711 14.5389C55.1825 14.3855 55.2918 14.2267 55.327 14.0508C55.3756 13.3333 55.4062 12.7059 55.2755 12.042C55.1662 11.7426 55.1281 11.4641 55.3404 11.2358C55.1792 11.1996 55.1281 11.008 55.0665 10.9003C54.7754 9.74703 54.6582 8.45242 54.3131 7.27001C54.3131 7.27001 54.4065 7.20309 54.4258 7.11453C54.3026 6.08219 53.5127 5.10853 53.1321 4.06584C53.0751 3.87876 52.7694 3.65591 52.627 3.45885C52.627 3.45885 52.6362 3.36863 52.6463 3.28009C53.0546 3.33501 53.3624 3.72577 53.5802 4.028C54.0015 4.6246 54.4902 5.2873 54.6188 5.9529C54.8425 6.547 55.1746 7.17273 55.3111 7.75391C55.3987 8.14055 55.6797 8.39288 55.8681 8.71306C55.9724 9.01365 55.9209 9.27307 55.9477 9.55536C56.0604 10.2222 56.2669 10.87 56.3954 11.5352C56.5546 12.0245 56.6233 12.5837 56.4599 13.0053C56.2375 13.7752 56.7493 14.6159 56.957 15.2977C57.073 15.5962 56.9261 15.9279 56.7992 16.1732C56.7858 16.2589 56.9261 16.384 56.9085 16.468C56.7669 16.8027 56.8809 17.1004 56.8168 17.4504C56.7217 17.5198 56.9261 17.7464 56.8168 17.9019C56.7217 17.9747 56.6425 17.9571 56.5403 18.027C56.4155 18.2723 56.5282 18.57 56.4776 18.8319C56.2196 19.3213 56.3544 19.9864 55.8715 20.3365C55.6931 20.3889 55.6768 20.4774 55.5788 20.5473C55.6592 20.566 55.7254 20.6703 55.7882 20.7751C55.6931 20.8433 55.6127 20.8259 55.5172 20.8961C55.4825 21.0715 55.8263 21.2865 55.8904 21.3883C55.7589 22.0926 55.2354 22.7025 55.248 23.5277C55.2191 23.7019 55.1663 23.9626 55.1386 24.1389C54.9762 24.5609 54.6687 24.8569 54.5079 25.2756C54.4815 25.4498 54.1402 25.4701 54.1067 25.6473C53.8986 25.8709 53.9195 26.2401 53.7721 26.5727C53.6619 26.7294 53.4174 26.6775 53.2243 26.8167C53.0019 27.1306 53.0325 27.4117 52.8909 27.7435C52.6463 28.1484 52.3553 28.58 52.1149 28.9807C51.8414 29.559 51.3807 30.117 50.8832 30.5543C50.8011 30.5382 50.6256 30.5905 50.5289 30.6587C50.2747 31.1501 49.979 31.5189 49.4329 31.7625C49.3495 31.7497 49.2322 32.1271 49.1376 32.1969C48.7603 32.4771 48.5421 32.7915 48.0868 33.0542C47.9155 33.1092 47.8204 33.1781 47.6303 32.8626C47.0373 33.914 46.2382 34.7363 45.3705 35.4535C44.9173 35.7167 44.4596 35.6876 44.1593 35.9828C43.173 36.9473 41.6071 37.9696 41.4257 38.1135C41.3512 38.0931 41.0509 38.5404 41.0509 38.5404C40.7322 38.5683 40.9169 38.5957 40.6195 38.528C40.6195 38.528 40.6062 39.0231 40.2058 39.1042C39.3564 39.2713 39.1328 40.2492 39.0687 40.6545C39.0348 40.8528 38.8911 40.7152 38.7919 40.7979C38.6997 40.8799 38.7659 41 38.6646 41.0823C38.2956 41.3081 37.9815 41.757 37.6737 42.1034C37.5761 42.184 37.5145 42.0618 37.4178 42.1475C37.321 42.2261 36.8725 42.7828 36.7062 43.2692C36.3218 44.1231 35.9005 44.8844 35.3661 45.4877C35.2375 45.634 35.6693 46.2019 35.6371 46.3965C35.5127 46.6651 35.2681 46.7092 35.15 46.9794C35.0369 47.6488 35.0068 48.3921 34.892 49.1014C34.6989 49.7915 34.9402 50.2838 35.0315 50.8994C35.1383 51.4195 35.005 52.0893 35.0315 52.5919C35.0695 52.9985 35.3468 53.443 35.3008 53.8367C35.3167 54.4428 35.1776 54.3614 35.3095 54.8711C35.2919 55.1671 35.1922 55.4623 35.2609 55.6672C35.2375 56.0634 35.1747 56.3124 35.1525 56.7087C35.0662 56.803 34.892 56.9914 34.8861 57.0907C34.8249 58.0857 34.1679 58.9616 33.4802 59.6168C33.0588 59.8866 32.6899 60.3024 32.2011 60.2658C31.9553 60.2517 31.142 60.7643 30.8693 60.8296C30.1482 61.0299 29.5744 61.0345 28.8842 60.9401C28.1232 60.7323 27.5173 60.5452 26.9921 59.7694C26.683 59.4248 26.1449 59.5545 25.9426 59.0244C25.8844 58.8136 25.4455 58.7076 25.3705 58.5953C24.9722 58.2382 24.7603 57.8083 24.4617 57.3664C24.2598 56.838 24.4047 56.4746 24.1618 55.962C23.9135 55.6493 23.805 55.4257 23.5579 55.1122C23.2254 54.694 23.6324 54.0928 23.3895 53.6783C23.2199 53.5677 23.0524 53.3586 22.972 53.1541C22.8124 52.7475 22.851 52.1546 22.6051 51.7218C22.4719 51.2034 22.5566 49.3292 22.6592 48.8237C22.678 48.721 22.3857 48.58 22.3999 48.4769C22.4409 47.7486 22.6956 47.0414 22.637 46.2918C22.7119 45.8893 22.6781 45.5638 23.0453 45.2199C23.0453 45.2199 22.8702 45.0803 22.8887 44.9788C23.1027 44.3922 23.1027 43.9416 23.2199 43.33C23.2384 43.2302 23.4519 43.1703 23.4695 43.0672C23.3527 42.6215 23.3498 41.716 23.4273 41.3107C23.4671 41.1107 23.9893 40.8081 24.1137 40.6268C24.1313 40.527 24.0363 40.2663 24.2335 39.9163C24.2837 39.8307 24.4224 39.8556 24.5237 39.7741C24.5379 39.6723 24.4726 39.5521 24.491 39.4532C24.5409 39.1497 25.056 38.9289 25.0945 38.7281C25.296 38.04 25.6444 37.7536 26.0092 37.194C26.1403 36.9475 26.1914 36.686 26.4067 36.4577C26.5017 36.3895 26.552 36.4552 26.5662 36.3679C26.5822 36.2806 26.5369 36.0861 26.552 36.0021C26.7564 35.7722 27.0386 35.5626 27.0843 35.3003C27.2292 34.9673 27.3519 34.722 27.5559 34.4929C27.9345 34.2135 28.3118 33.9316 28.5443 33.5325C28.7465 33.3026 28.9819 33.3575 29.1884 33.1284C29.4841 32.8308 29.5645 32.3934 29.7856 32.0783C30.3049 31.4638 30.867 31.0439 31.4332 30.624C31.9014 30.2723 32.4999 30.133 32.9551 29.8707C33.4246 29.5214 33.7073 28.855 34.1625 28.5922C34.4431 28.3814 34.7736 28.3656 35.0579 28.1544C35.3415 27.9457 35.576 27.5433 35.9985 27.4547C36.9366 27.2074 36.2661 27.4706 37.1443 27.1205C37.693 26.7891 37.463 26.6968 38.0163 26.3638C38.9251 25.8346 39.3975 25.502 39.4754 25.5211C39.5688 25.45 39.663 25.3805 39.6948 25.2047C39.913 24.8891 41.0807 24.0784 41.2532 24.026C41.4257 23.9729 41.6289 24.199 41.8316 23.9729C41.9409 23.8157 41.7231 23.6731 41.8316 23.5164C42.1297 23.2203 42.4149 22.8175 42.7077 22.6071C42.7998 22.5389 43.0298 22.6774 43.2052 22.625C43.3003 22.556 43.3313 22.3789 43.4293 22.314C43.542 22.1544 43.3313 21.9257 43.4435 21.7677C43.5738 21.522 43.6998 21.2797 43.8782 21.2273C44.1517 21.1021 44.519 20.9121 44.4738 20.7201C44.5353 20.3688 44.6786 20.0341 45.0521 19.8428C45.0651 19.7568 45.084 19.6657 45.0986 19.5813C45.3051 19.3531 45.4982 19.2155 45.7118 18.9856C45.9296 18.6708 45.8366 18.2855 45.9647 18.0401C46.3835 17.5853 46.7848 17.2194 46.8953 16.6066C46.8635 16.3281 46.688 15.9227 46.8153 15.6779C46.9279 15.5215 47.2818 15.4155 47.3137 15.243C47.3786 14.8904 47.2014 14.4884 47.1838 14.1213C47.2324 13.8594 47.5189 13.6486 47.4883 13.3701C47.4556 12.6321 47.5059 11.9145 47.3916 11.162C47.6462 11.1284 47.6814 10.9529 47.7124 10.777C47.6462 10.2175 47.3258 9.69483 47.1821 9.11403C47.1662 8.74776 47.4678 8.4501 47.4548 8.0838C47.4221 7.80359 47.1516 7.47099 46.8588 7.22528C46.5866 6.89268 46.7625 6.38758 46.6658 6.00092C46.5866 5.52862 46.2311 5.17733 46.1699 4.6194C46.1364 4.33752 45.7963 4.35623 45.6854 4.05855C45.5874 3.67357 45.4935 3.28899 45.4935 2.83291C45.4441 2.64124 45.1866 2.67575 45.0412 2.55352C44.7183 2.02802 44.8343 0.96165 44.1228 0.716304C44.1869 0.365834 43.8694 0.295985 43.7526 0C44.171 0 44.5571 0.174615 44.7971 0.68182C44.8645 0.786178 45.1032 0.83814 45.1853 0.857272C45.3956 1.08385 45.378 1.62683 45.605 1.76777C45.8931 2.01057 46.3265 1.92368 46.4376 2.22094C46.6001 2.70945 46.9686 2.97383 47.1504 3.37755C47.1311 3.46277 47.178 3.65443 47.2425 3.76087C47.5349 4.00699 47.5642 4.28554 47.7723 4.51338C48.2522 5.07131 48.7393 5.63506 48.5123 6.40334C48.372 6.73761 48.8038 6.64739 48.9295 6.85651C49.2561 7.38409 49.1242 8.08381 49.5443 8.5374C49.4651 9.4304 49.8986 10.2557 50.1733 11.0398C49.7068 11.759 49.9643 13.0154 50.3345 13.7317C50.3345 13.7317 50.5917 13.6981 50.6109 13.6112C50.6872 13.1742 51.4901 13.0275 51.3602 12.8179C51.2006 12.3269 50.9577 11.3029 50.9577 10.8493C51.0079 10.1305 51.0381 9.50064 50.9225 8.74775C50.8597 8.64172 50.7952 8.53738 50.7336 8.43261C50.6356 8.04762 50.5406 7.661 50.6193 7.22529C50.5711 7.03197 50.425 6.9085 50.3781 6.71975C50.3944 6.62995 50.425 6.45575 50.4426 6.36969C50.6193 6.31605 50.8438 6.45575 51.0013 6.49192C51.1508 6.61373 51.0206 6.85652 51.0863 6.96296C51.3426 7.38411 51.7287 7.55997 51.8091 8.03017C51.7932 8.11706 51.7609 8.29292 51.7479 8.37982C51.8091 8.93941 52.1462 9.37799 52.2279 9.85195C52.2614 10.1305 52.0214 10.5326 52.1341 10.8331C52.5014 11.5482 52.5177 12.3701 52.4603 13.175C52.3945 13.525 52.8393 13.8044 52.7104 14.0497C52.5881 14.295 52.7477 14.3299 52.6157 14.5752C52.5994 14.6625 52.4222 14.7149 52.4092 14.8018C52.6492 15.3107 52.2848 16.0785 52.2044 16.518C52.1898 16.6049 52.4779 16.698 52.5365 16.3787C52.573 16.1821 52.9068 16.185 53.0822 16.1326C53.2782 15.9904 53.419 15.6591 53.4026 15.2915M55.1323 17.0406C55.1498 16.5961 55.3593 16.2723 55.2789 15.8C55.121 15.309 54.7549 15.7955 54.4974 15.832C54.6436 16.4086 54.4023 16.811 54.2239 17.315C54.1138 17.4746 54.0351 17.9124 54.2897 17.8758C54.6951 17.9673 55.121 17.5844 55.1324 17.0405M54.4467 19.4377C54.5485 19.298 54.5033 19.0162 54.3525 18.8927C54.1318 18.7547 53.842 18.9638 53.713 19.2095C53.5844 19.4548 53.6795 19.841 54.0204 19.821C54.0996 19.841 54.3362 19.599 54.4467 19.4377Z" fill="white"/>
<path d="M49.723 4.50903C50.1498 4.82956 50.3169 5.36544 50.6591 5.80447L50.6222 5.98033C50.0283 6.48754 49.5132 5.64731 49.3524 5.15675C49.1107 4.64828 48.8724 4.14152 48.4365 3.77561C48.4511 3.68664 48.4674 3.59808 48.4863 3.51119C48.2744 3.28253 48.0051 2.95284 48.2744 2.82981C48.3867 2.67308 48.5843 2.98822 48.8067 3.12375C49.1434 3.56486 49.2079 4.12154 49.7231 4.50903L49.723 4.50903Z" fill="white"/>
<path d="M52.1546 2.26243C52.1615 2.35099 52.0172 2.5019 51.998 2.58755C51.7174 2.33187 51.4401 2.07368 51.1947 1.64461C51.1177 1.62053 50.9564 1.581 50.8957 1.47207C50.8169 1.45004 50.8362 1.36605 50.8568 1.27917C51.1127 1.2542 51.312 1.49119 51.5356 1.63878C51.6135 1.66126 51.7132 1.59427 51.7915 1.61471C52.008 1.76521 52.1312 1.9789 52.1546 2.26243H52.1546Z" fill="white"/>
<path d="M15.8808 18.3696C15.9566 18.4303 16.0721 18.5276 16.1312 18.609C16.2615 18.6934 16.3959 18.7034 16.5366 18.6423C16.6664 18.651 16.7883 18.994 16.924 19.004C17.1145 19.093 17.2389 19.4339 17.4278 19.5985C17.5547 19.6809 17.6891 19.8031 17.8211 19.8887C18.0012 20.1224 18.1213 20.3519 18.3111 20.5115C18.4359 20.6716 18.639 20.6146 18.7734 20.6254C19.0373 20.7194 19.1437 21.096 19.33 21.3297C19.397 21.3355 19.5143 21.5667 19.5097 21.6407C19.637 21.723 19.7585 21.8773 19.9545 21.9675C20.0147 22.049 20.0072 22.1924 20.0675 22.2722C20.5517 23.0468 21.1878 23.5361 21.5995 24.3784C21.5995 24.3784 21.6523 24.531 21.6506 24.6042C22.1511 25.0864 22.3689 25.7645 22.8007 26.3137C22.918 26.542 23.0273 26.9182 23.1357 27.2201C23.2635 27.3785 23.3908 27.4612 23.5106 27.6213C23.6932 27.9273 23.8674 28.311 23.9084 28.6802C23.8979 28.8253 23.7991 29.2581 23.5424 29.0169C23.2308 28.6976 23.2647 28.2632 22.9456 28.0133C22.9501 27.9418 22.8652 27.7502 22.8007 27.6766C22.6717 27.5219 22.4422 27.5311 22.3911 27.3099C22.4045 27.0891 22.1566 26.9108 22.0314 26.7582C21.7122 26.3034 21.2499 26.1367 20.8666 25.6776C20.7975 25.6751 20.7272 25.6719 20.6585 25.7412C20.5852 25.8834 20.3762 26.0942 20.571 26.3237C20.8315 26.4825 20.9542 26.781 21.2863 26.9423C21.4806 27.0995 21.5292 27.5427 21.6506 27.9148C21.7763 28.064 21.9069 28.2166 22.1042 28.3022C22.3006 28.4561 22.2231 28.6885 22.4045 28.9255C22.4013 28.999 22.3282 29.0652 22.3224 29.1387C22.4422 29.3699 22.7119 29.3158 22.8991 29.5516C23.0448 29.4165 23.2408 29.5271 23.3598 29.7378C23.1387 29.9424 23.1973 30.092 23.1123 30.3099C22.8857 30.6529 23.3991 30.988 23.7212 31.1605C23.9243 31.1784 23.8979 31.5446 24.0889 31.7043C24.2041 31.9354 24.5391 31.9625 24.7209 32.2722C24.7774 32.4219 24.6371 32.4859 24.5596 32.6239C24.5391 32.8443 24.8055 32.9391 24.9299 33.0235C25.0584 33.1074 25.1175 33.2592 25.1732 33.4109C24.968 33.4662 24.5714 33.1931 24.3695 33.1777C24.2447 33.1203 24.0022 32.8301 23.7434 32.7744C23.6521 32.7545 23.5926 32.9669 23.5005 32.9478C23.3744 32.9258 23.2454 32.8983 23.1122 32.8767C22.9707 32.8501 22.631 32.4767 22.4832 32.4551C22.3153 32.426 22.1113 32.7324 21.9496 32.7033C21.342 32.6002 21.3168 32.5632 21.1297 32.4817C20.9043 32.3928 20.6903 32.2897 20.4889 32.1762C20.3616 32.1068 20.3951 31.9338 20.2753 31.8552C20.1522 31.7758 19.8887 31.7766 19.7656 31.7001C19.2802 31.4079 18.8221 30.7398 18.4078 30.5277C18.1373 30.3868 17.9074 30.2484 17.6046 30.1033C17.4559 30.0106 17.3516 29.8085 17.1669 29.7461C16.5948 29.5557 16.14 29.1974 15.4917 29.0169C14.2642 28.6715 13.241 29.3699 12.2431 29.8842C12.1886 29.881 12.0835 29.8738 12.0278 29.9104C11.8 30.1034 11.5261 30.211 11.3003 30.3607C10.9921 30.6047 10.5619 30.6684 10.2161 30.8692C10.1084 30.9328 10.0967 31.129 9.99283 31.1934C9.82573 31.2874 9.53759 31.3065 9.37803 31.4071C9.2348 31.4978 9.21261 31.6695 9.07357 31.7726C8.78543 32.0021 8.50441 32.1896 8.11829 32.3713C7.89591 32.4818 6.05529 32.7953 5.74742 32.7995C5.27208 32.8082 4.94461 33.1957 4.23597 33.1932C3.15925 33.1874 2.08208 33.1669 1.18669 32.5059C1.00075 32.3421 0.964317 31.8994 0.835326 31.8145C0.450857 31.5647 0.487293 31.0549 0.380502 30.6791C0.251512 30.5943 -0.0165239 30.5744 0.00106977 30.3532C0.147648 29.2627 0.690858 28.2774 1.358 27.5253C1.51128 27.2421 1.8568 27.1224 1.88611 26.7582C1.88611 26.7582 2.48626 25.9246 2.84434 25.587C2.92471 25.4465 2.80671 25.2153 2.88577 25.0756C3.4344 24.0172 4.43363 23.2892 5.24281 22.3275C5.45975 22.1255 5.61555 21.844 5.95396 21.7971C6.09301 21.8062 6.222 21.8178 6.30073 21.6786C6.46197 21.3239 6.74717 21.126 6.95784 20.9955C7.7393 20.47 8.39352 19.6751 9.28009 19.53C9.41913 19.4647 9.49786 19.3279 9.63439 19.2622C9.78475 19.1275 10.0381 19.2959 10.1772 19.2335C10.838 18.9371 11.4428 18.301 12.1221 18.2096C12.2607 18.1501 12.3386 18.0075 12.4039 18.0121C13.0066 18.0629 13.7198 17.5323 14.2847 18.0944C14.7948 17.9888 15.5571 18.0944 15.8808 18.3696M20.4977 24.7811C20.4983 24.7075 20.5002 24.6347 20.5062 24.562C20.2399 24.4007 20.1259 23.9558 19.7926 23.8677C19.7247 23.8652 19.5886 23.9317 19.5832 24.0041C19.5689 24.4443 19.7574 24.7466 19.9433 25.1196C20.0221 24.8323 20.221 24.8422 20.3517 25.0651C20.4186 24.9977 20.4907 24.8551 20.4978 24.7811L20.4977 24.7811Z" fill="white"/>
</g>
<defs>
<clipPath id="clip0_181_2830">
<rect width="57" height="61" fill="white"/>
</clipPath>
</defs>
</svg>
