<svg width="225" height="56" viewBox="0 0 225 56" fill="none" xmlns="http://www.w3.org/2000/svg">
<g filter="url(#filter0_d_162_11622)">
<path d="M29.7907 12.8049C29.8593 12.9119 29.949 13.0061 29.9585 13.1136C30.0591 13.4279 30.3457 13.6148 30.3804 13.9363C30.3922 14.0418 30.5302 14.084 30.6015 14.1321C30.6786 14.2314 30.626 14.3446 30.7751 14.4937C30.8444 14.5389 30.7904 14.6532 30.804 14.7592C30.8723 14.8063 30.9473 14.8527 31.0176 14.8998C31.6584 15.9166 31.7212 17.0982 30.9769 18.193C30.8564 18.313 30.7429 18.485 30.6939 18.6523C30.6352 18.7124 30.5108 18.7775 30.448 18.8366C30.4626 18.9445 30.5319 18.9909 30.61 19.0913C30.288 19.1769 30.2516 19.4488 30.0051 19.6357C29.9391 19.6398 29.8092 19.6529 29.7432 19.6588C29.5631 19.8396 29.3722 19.91 29.1851 20.0366C29.1276 20.096 29.1433 20.2555 29.1492 20.3095C28.8437 20.5536 28.3963 20.7045 27.9296 20.6945C27.8641 20.7011 27.8159 20.8667 27.7506 20.8728C27.4202 20.9054 27.0215 20.889 26.6928 20.9199C26.5555 20.878 26.4784 20.7793 26.34 20.7374C26.209 20.7508 26.0786 20.7621 25.9414 20.7224C25.7261 20.5794 25.4567 20.5521 25.2465 20.4638C25.1095 20.4216 24.8592 20.5536 24.7162 20.4604C24.273 20.0703 23.8358 19.6807 23.5904 19.2721C23.4302 19.0184 23.154 18.9353 23.0599 18.6754C23.0487 18.5682 23.098 18.4028 22.961 18.3606C22.6863 18.2794 22.7997 18.1069 22.7811 17.9467C22.6989 17.7944 22.6872 17.6871 22.5384 17.5382C22.4533 17.3853 22.5619 17.1591 22.4739 16.9513C22.4694 16.8983 22.5296 16.8375 22.5236 16.7852C22.421 16.4714 22.5849 16.132 22.5568 15.8653C22.5364 15.7058 22.5796 15.4855 22.6278 15.3194C22.7913 14.9796 22.9464 14.5879 23.2403 14.2356C23.2345 14.1834 23.2233 14.0771 23.2182 14.0237C23.2776 13.9631 23.3438 13.9579 23.4023 13.8971C23.5065 13.6183 23.6147 13.3921 23.7875 13.161C24.0223 12.8692 24.3925 12.6183 24.6934 12.3194C24.8711 12.1405 25.1238 12.01 25.2899 11.7222C25.3522 11.6638 25.5607 11.7522 25.6218 11.693C25.8 11.5139 26.0682 11.5421 26.2546 11.4162C26.4404 11.2918 26.4038 11.5634 26.5943 11.4916C26.7265 11.4788 26.7859 11.4204 26.9105 11.3527C27.1028 11.2813 27.3188 11.4219 27.5213 11.4577C27.7179 11.439 27.9202 11.4741 28.1362 11.6157C28.4227 11.8034 29.0801 11.7399 29.1851 12.1086C29.3461 12.3616 29.6307 12.5517 29.7907 12.8049L29.7907 12.8049Z" fill="white"/>
<path d="M40.917 17.0251C40.9112 16.859 40.917 16.7577 40.852 16.581C40.8334 16.4156 40.9638 16.2306 40.9078 16.0024C40.8705 15.9416 40.7866 15.8685 40.7975 15.8165C40.9078 15.4676 40.9163 15.1462 40.8891 14.7646C40.8622 14.6498 40.8239 14.588 40.7866 14.5254C40.7943 14.4741 40.8137 14.3711 40.8324 14.269C40.8418 13.9483 40.7395 13.711 40.6471 13.421C40.619 13.3089 40.5337 13.236 40.5155 13.0711C40.4791 13.0088 40.3952 12.9352 40.4037 12.8847C40.4876 12.4192 40.2638 12.047 40.1979 11.6039C40.0965 11.097 39.6225 10.7771 39.4726 10.261C39.4792 10.2098 39.6353 10.2311 39.6826 10.2424C40.0531 10.5933 40.4638 11.0052 40.5681 11.5121C40.6323 11.6885 40.6044 11.8424 40.6808 11.9663C40.9941 12.3584 41.0511 12.8537 41.1069 13.3498C41.0976 13.4024 41.2009 13.3697 41.2363 13.434C41.2305 13.4845 41.2111 13.5874 41.2484 13.6502C41.4899 13.9186 41.3415 14.2067 41.3881 14.4858C41.417 14.6007 41.4526 14.6608 41.4899 14.7233C41.4805 14.7759 41.3602 14.911 41.35 14.9616C41.5467 15.22 41.6306 15.5602 41.5753 15.8694C41.7991 15.9752 41.6982 16.2725 41.7506 16.5005C41.7882 16.5631 41.8364 16.5736 41.883 16.581C41.9475 16.4904 42.0107 16.3967 42.0311 16.2929C42.0592 15.8694 42.0769 15.4992 42.0013 15.1074C41.938 14.9307 41.9159 14.7663 42.0389 14.6316C41.9455 14.6102 41.9159 14.4971 41.8803 14.4336C41.7118 13.753 41.6439 12.9889 41.4441 12.2911C41.4441 12.2911 41.4982 12.2516 41.5093 12.1994C41.4381 11.5901 40.9808 11.0155 40.7604 10.4001C40.7274 10.2897 40.5504 10.1582 40.4679 10.0419C40.4679 10.0419 40.4733 9.98867 40.4791 9.93642C40.7155 9.96883 40.8937 10.1994 41.0198 10.3778C41.2637 10.7299 41.5467 11.121 41.6211 11.5138C41.7506 11.8644 41.9429 12.2337 42.0219 12.5767C42.0726 12.8049 42.2353 12.9538 42.3444 13.1428C42.4048 13.3202 42.3749 13.4733 42.3905 13.6399C42.4557 14.0334 42.5752 14.4157 42.6497 14.8083C42.7418 15.0971 42.7816 15.4271 42.687 15.6759C42.5583 16.1303 42.8546 16.6264 42.9748 17.0288C43.042 17.2049 42.9569 17.4007 42.8834 17.5455C42.8757 17.596 42.9569 17.6699 42.9467 17.7195C42.8647 17.917 42.9307 18.0926 42.8936 18.2992C42.8386 18.3402 42.9569 18.4739 42.8936 18.5657C42.8386 18.6087 42.7927 18.5983 42.7336 18.6395C42.6613 18.7843 42.7265 18.96 42.6972 19.1145C42.5479 19.4033 42.6259 19.7959 42.3464 20.0025C42.2431 20.0334 42.2336 20.0857 42.1769 20.1269C42.2234 20.1379 42.2618 20.1995 42.2981 20.2613C42.2431 20.3016 42.1965 20.2913 42.1412 20.3327C42.1211 20.4363 42.3202 20.5631 42.3573 20.6233C42.2812 21.0389 41.9781 21.3988 41.9853 21.8858C41.9686 21.9887 41.9381 22.1425 41.9221 22.2465C41.828 22.4956 41.65 22.6703 41.5569 22.9174C41.5416 23.0202 41.344 23.0322 41.3246 23.1367C41.2041 23.2687 41.2162 23.4866 41.1309 23.6829C41.0671 23.7754 40.9255 23.7447 40.8138 23.8269C40.685 24.0121 40.7027 24.178 40.6208 24.3738C40.4792 24.6128 40.3106 24.8675 40.1715 25.104C40.0131 25.4453 39.7464 25.7746 39.4584 26.0327C39.4109 26.0232 39.3093 26.0541 39.2532 26.0943C39.1061 26.3843 38.9349 26.6019 38.6187 26.7457C38.5704 26.7381 38.5026 26.9609 38.4478 27.0021C38.2293 27.1675 38.103 27.353 37.8394 27.508C37.7402 27.5405 37.6852 27.5812 37.5751 27.3949C37.2318 28.0155 36.7692 28.5007 36.2668 28.924C36.0045 29.0793 35.7394 29.0621 35.5656 29.2364C34.9946 29.8056 34.088 30.4089 33.983 30.4938C33.9399 30.4818 33.766 30.7458 33.766 30.7458C33.5815 30.7622 33.6884 30.7784 33.5163 30.7385C33.5163 30.7385 33.5085 31.0307 33.2767 31.0785C32.785 31.1772 32.6555 31.7543 32.6184 31.9935C32.5988 32.1105 32.5156 32.0293 32.4581 32.0781C32.4048 32.1264 32.4431 32.1973 32.3844 32.2459C32.1708 32.3792 31.989 32.6441 31.8108 32.8485C31.7543 32.8961 31.7186 32.824 31.6626 32.8746C31.6066 32.921 31.3469 33.2495 31.2507 33.5366C31.0281 34.0405 30.7842 34.4898 30.4748 34.8458C30.4004 34.9322 30.6503 35.2673 30.6317 35.3822C30.5597 35.5407 30.4181 35.5667 30.3497 35.7262C30.2842 36.1212 30.2668 36.5599 30.2003 36.9785C30.0886 37.3858 30.2282 37.6763 30.2811 38.0396C30.3429 38.3466 30.2658 38.7419 30.2811 39.0385C30.3031 39.2785 30.4636 39.5408 30.437 39.7731C30.4462 40.1308 30.3657 40.0827 30.442 40.3836C30.4319 40.5582 30.3741 40.7325 30.4139 40.8534C30.4004 41.0872 30.364 41.2342 30.3511 41.468C30.3012 41.5237 30.2003 41.6349 30.1969 41.6935C30.1615 42.2807 29.7811 42.7976 29.3829 43.1843C29.139 43.3435 28.9254 43.5889 28.6424 43.5673C28.5001 43.559 28.0292 43.8615 27.8714 43.9C27.4539 44.0183 27.1217 44.021 26.7221 43.9653C26.2816 43.8426 25.9307 43.7322 25.6267 43.2744C25.4478 43.071 25.1362 43.1475 25.0191 42.8347C24.9854 42.7103 24.7313 42.6477 24.6879 42.5815C24.4573 42.3707 24.3346 42.117 24.1617 41.8562C24.0448 41.5443 24.1288 41.3299 23.9881 41.0274C23.8443 40.8429 23.7815 40.7109 23.6385 40.5259C23.446 40.279 23.6816 39.9242 23.541 39.6796C23.4428 39.6144 23.3458 39.491 23.2993 39.3702C23.2069 39.1303 23.2292 38.7804 23.0869 38.525C23.0098 38.219 23.0588 37.1129 23.1182 36.8146C23.1291 36.754 22.9598 36.6708 22.9681 36.61C22.9918 36.1801 23.1392 35.7628 23.1053 35.3203C23.1487 35.0828 23.1291 34.8907 23.3417 34.6878C23.3417 34.6878 23.2404 34.6054 23.251 34.5455C23.3749 34.1993 23.3749 33.9333 23.4428 33.5724C23.4535 33.5135 23.5771 33.4782 23.5873 33.4173C23.5197 33.1543 23.518 32.6199 23.5628 32.3807C23.5859 32.2627 23.8882 32.0841 23.9603 31.9771C23.9704 31.9182 23.9154 31.7644 24.0296 31.5578C24.0587 31.5072 24.139 31.5219 24.1976 31.4739C24.2059 31.4138 24.168 31.3429 24.1787 31.2845C24.2076 31.1053 24.5058 30.9751 24.5281 30.8566C24.6447 30.4505 24.8465 30.2815 25.0577 29.9512C25.1335 29.8057 25.1631 29.6514 25.2878 29.5167C25.3428 29.4764 25.3719 29.5152 25.3801 29.4637C25.3894 29.4121 25.3631 29.2973 25.3719 29.2478C25.4902 29.1121 25.6536 28.9884 25.6801 28.8336C25.764 28.637 25.835 28.4923 25.9531 28.3571C26.1723 28.1922 26.3907 28.0259 26.5253 27.7903C26.6424 27.6546 26.7787 27.687 26.8982 27.5518C27.0694 27.3762 27.116 27.1181 27.244 26.9321C27.5446 26.5694 27.87 26.3216 28.1978 26.0738C28.4689 25.8662 28.8154 25.784 29.079 25.6292C29.3508 25.4231 29.5144 25.0298 29.778 24.8747C29.9405 24.7503 30.1318 24.741 30.2964 24.6164C30.4605 24.4932 30.5963 24.2557 30.8409 24.2034C31.3841 24.0574 30.9959 24.2128 31.5043 24.0062C31.8219 23.8106 31.6888 23.7561 32.0091 23.5596C32.5353 23.2473 32.8088 23.051 32.8539 23.0622C32.9079 23.0203 32.9625 22.9793 32.9809 22.8755C33.1072 22.6893 33.7832 22.2108 33.8831 22.1799C33.983 22.1485 34.1006 22.282 34.218 22.1485C34.2812 22.0558 34.1552 21.9716 34.218 21.8791C34.3906 21.7044 34.5557 21.4667 34.7252 21.3425C34.7785 21.3023 34.9117 21.384 35.0133 21.3531C35.0683 21.3123 35.0862 21.2078 35.143 21.1696C35.2082 21.0753 35.0862 20.9404 35.1512 20.8472C35.2266 20.7022 35.2996 20.5591 35.4029 20.5282C35.5612 20.4543 35.7738 20.3422 35.7477 20.2289C35.7833 20.0215 35.8662 19.824 36.0825 19.7112C36.09 19.6604 36.1009 19.6066 36.1094 19.5568C36.229 19.4221 36.3408 19.3409 36.4644 19.2052C36.5905 19.0195 36.5367 18.7921 36.6109 18.6473C36.8533 18.3788 37.0856 18.1629 37.1496 17.8013C37.1312 17.6369 37.0296 17.3976 37.1033 17.2531C37.1685 17.1609 37.3734 17.0983 37.3918 16.9965C37.4294 16.7884 37.3268 16.5512 37.3166 16.3345C37.3448 16.1799 37.5106 16.0555 37.4929 15.8912C37.474 15.4556 37.5031 15.0322 37.4369 14.588C37.5843 14.5682 37.6047 14.4646 37.6226 14.3608C37.5843 14.0306 37.3988 13.7222 37.3157 13.3794C37.3064 13.1632 37.481 12.9876 37.4735 12.7714C37.4546 12.606 37.298 12.4097 37.1285 12.2647C36.9709 12.0684 37.0727 11.7703 37.0167 11.5422C36.9709 11.2634 36.765 11.0561 36.7296 10.7268C36.7102 10.5605 36.5134 10.5715 36.4491 10.3958C36.3924 10.1686 36.3381 9.94167 36.3381 9.67251C36.3095 9.55939 36.1603 9.57976 36.0762 9.50762C35.8893 9.19749 35.9564 8.56816 35.5445 8.42336C35.5816 8.21653 35.3978 8.17531 35.3301 8.00063C35.5724 8.00063 35.7959 8.10368 35.9348 8.40301C35.9739 8.4646 36.1121 8.49527 36.1596 8.50656C36.2813 8.64027 36.2712 8.96072 36.4026 9.0439C36.5694 9.18719 36.8203 9.13591 36.8846 9.31134C36.9787 9.59964 37.192 9.75567 37.2973 9.99393C37.2861 10.0442 37.3133 10.1573 37.3506 10.2202C37.5199 10.3654 37.5368 10.5298 37.6573 10.6643C37.9352 10.9935 38.2172 11.3262 38.0858 11.7796C38.0045 11.9769 38.2545 11.9237 38.3273 12.0471C38.5164 12.3584 38.44 12.7714 38.6832 13.0391C38.6374 13.5661 38.8883 14.0532 39.0474 14.5159C38.7773 14.9404 38.9264 15.6818 39.1407 16.1046C39.1407 16.1046 39.2896 16.0847 39.3008 16.0334C39.3449 15.7756 39.8097 15.689 39.7345 15.5653C39.6421 15.2755 39.5015 14.6712 39.5015 14.4035C39.5306 13.9793 39.548 13.6076 39.4811 13.1632C39.4448 13.1007 39.4074 13.0391 39.3718 12.9772C39.3151 12.75 39.26 12.5219 39.3056 12.2647C39.2777 12.1506 39.1931 12.0778 39.1659 11.9664C39.1754 11.9134 39.1931 11.8106 39.2033 11.7598C39.3056 11.7281 39.4356 11.8106 39.5267 11.8319C39.6133 11.9038 39.5379 12.0471 39.576 12.1099C39.7243 12.3585 39.9479 12.4622 39.9944 12.7397C39.9852 12.791 39.9665 12.8948 39.959 12.9461C39.9944 13.2763 40.1896 13.5352 40.2369 13.8149C40.2563 13.9793 40.1174 14.2166 40.1826 14.3939C40.3952 14.8159 40.4047 15.301 40.3715 15.776C40.3334 15.9826 40.5909 16.1475 40.5162 16.2923C40.4454 16.437 40.5378 16.4576 40.4614 16.6024C40.452 16.6539 40.3494 16.6848 40.3419 16.7361C40.4808 17.0364 40.2699 17.4896 40.2233 17.749C40.2148 17.8002 40.3816 17.8552 40.4156 17.6668C40.4367 17.5507 40.6299 17.5524 40.7315 17.5215C40.845 17.4376 40.9265 17.242 40.917 17.0251M41.9184 18.0573C41.9285 17.7951 42.0498 17.6039 42.0032 17.3252C41.9118 17.0354 41.6999 17.3226 41.5508 17.3441C41.6354 17.6844 41.4958 17.9219 41.3925 18.2193C41.3287 18.3135 41.2831 18.5719 41.4306 18.5503C41.6653 18.6043 41.9119 18.3783 41.9184 18.0573M41.5215 19.4721C41.5804 19.3896 41.5542 19.2233 41.4669 19.1504C41.3392 19.0689 41.1714 19.1924 41.0967 19.3374C41.0223 19.4821 41.0773 19.7101 41.2747 19.6983C41.3205 19.7101 41.4575 19.5673 41.5215 19.4721V19.4721Z" fill="white"/>
<path d="M38.7869 10.6616C39.034 10.8508 39.1307 11.1671 39.3288 11.4262L39.3075 11.53C38.9637 11.8293 38.6654 11.3334 38.5723 11.0439C38.4324 10.7438 38.2945 10.4448 38.0421 10.2288C38.0506 10.1763 38.06 10.124 38.0709 10.0728C37.9483 9.93781 37.7923 9.74324 37.9483 9.67063C38.0132 9.57814 38.1277 9.76412 38.2564 9.8441C38.4514 10.1044 38.4887 10.433 38.7869 10.6616L38.7869 10.6616Z" fill="white"/>
<path d="M40.1945 9.33618C40.1985 9.38845 40.115 9.47751 40.1038 9.52806C39.9414 9.37716 39.7809 9.22479 39.6388 8.97157C39.5942 8.95736 39.5008 8.93403 39.4657 8.86974C39.4201 8.85674 39.4312 8.80718 39.4431 8.7559C39.5913 8.74116 39.7067 8.88103 39.8361 8.96813C39.8812 8.9814 39.9389 8.94186 39.9843 8.95392C40.1096 9.04274 40.1809 9.16886 40.1945 9.33618H40.1945Z" fill="white"/>
<path d="M19.194 18.842C19.2379 18.8779 19.3048 18.9353 19.339 18.9834C19.4144 19.0331 19.4922 19.039 19.5737 19.003C19.6488 19.0081 19.7194 19.2106 19.798 19.2164C19.9083 19.269 19.9803 19.4701 20.0896 19.5673C20.1631 19.6159 20.2409 19.688 20.3173 19.7386C20.4216 19.8765 20.4912 20.0119 20.601 20.1061C20.6733 20.2006 20.7909 20.167 20.8687 20.1734C21.0214 20.2288 21.083 20.4511 21.1909 20.589C21.2297 20.5924 21.2976 20.7289 21.2949 20.7725C21.3686 20.8211 21.439 20.9121 21.5524 20.9654C21.5873 21.0135 21.583 21.0981 21.6179 21.1452C21.8982 21.6023 22.2665 21.8911 22.5048 22.3882C22.5048 22.3882 22.5354 22.4783 22.5344 22.5215C22.8242 22.8061 22.9503 23.2063 23.2003 23.5304C23.2682 23.6651 23.3314 23.8871 23.3942 24.0653C23.4682 24.1588 23.5419 24.2076 23.6112 24.302C23.717 24.4826 23.8178 24.7091 23.8416 24.927C23.8355 25.0126 23.7783 25.268 23.6297 25.1257C23.4493 24.9373 23.4689 24.6809 23.2842 24.5334C23.2868 24.4912 23.2376 24.3781 23.2003 24.3347C23.1256 24.2434 22.9927 24.2488 22.9631 24.1183C22.9709 23.988 22.8273 23.8827 22.7549 23.7927C22.5701 23.5243 22.3024 23.4259 22.0805 23.155C22.0405 23.1535 21.9998 23.1516 21.96 23.1925C21.9176 23.2764 21.7966 23.4008 21.9094 23.5363C22.0602 23.63 22.1312 23.8062 22.3235 23.9014C22.436 23.9941 22.4641 24.2557 22.5344 24.4753C22.6072 24.5633 22.6828 24.6534 22.797 24.7039C22.9107 24.7947 22.8659 24.9319 22.9709 25.0717C22.969 25.1151 22.9267 25.1542 22.9234 25.1976C22.9927 25.334 23.1488 25.3021 23.2572 25.4412C23.3416 25.3615 23.4551 25.4268 23.5239 25.5512C23.3959 25.6719 23.4299 25.7602 23.3806 25.8888C23.2495 26.0912 23.5467 26.289 23.7332 26.3908C23.8508 26.4013 23.8355 26.6175 23.9461 26.7117C24.0127 26.8481 24.2067 26.8641 24.312 27.0469C24.3447 27.1352 24.2634 27.173 24.2186 27.2544C24.2067 27.3845 24.3609 27.4404 24.4329 27.4902C24.5074 27.5398 24.5416 27.6293 24.5738 27.7189C24.455 27.7515 24.2254 27.5903 24.1085 27.5813C24.0362 27.5474 23.8959 27.3761 23.746 27.3432C23.6932 27.3315 23.6587 27.4569 23.6054 27.4456C23.5324 27.4326 23.4577 27.4164 23.3806 27.4036C23.2987 27.3879 23.102 27.1676 23.0164 27.1548C22.9192 27.1376 22.8011 27.3185 22.7075 27.3013C22.3557 27.2404 22.3412 27.2186 22.2328 27.1705C22.1024 27.118 21.9785 27.0572 21.8618 26.9902C21.7881 26.9492 21.8075 26.8471 21.7382 26.8008C21.6669 26.7539 21.5144 26.7544 21.4431 26.7092C21.1621 26.5368 20.8968 26.1425 20.657 26.0173C20.5004 25.9342 20.3673 25.8525 20.192 25.7668C20.1059 25.7121 20.0455 25.5929 19.9386 25.5561C19.6074 25.4437 19.3441 25.2322 18.9687 25.1257C18.2581 24.9218 17.6657 25.334 17.0879 25.6375C17.0564 25.6357 16.9956 25.6314 16.9633 25.653C16.8314 25.7669 16.6728 25.8304 16.5421 25.9188C16.3637 26.0628 16.1147 26.1003 15.9144 26.2188C15.8521 26.2564 15.8453 26.3722 15.7852 26.4102C15.6884 26.4657 15.5216 26.4769 15.4292 26.5363C15.3463 26.5898 15.3335 26.6911 15.253 26.752C15.0862 26.8874 14.9235 26.9981 14.6999 27.1053C14.5712 27.1706 13.5056 27.3556 13.3273 27.358C13.0521 27.3632 12.8625 27.5919 12.4523 27.5904C11.8289 27.587 11.2053 27.5749 10.6869 27.1848C10.5792 27.0881 10.5581 26.8268 10.4835 26.7768C10.2609 26.6293 10.282 26.3285 10.2201 26.1067C10.1455 26.0566 9.99029 26.0449 10.0005 25.9143C10.0853 25.2707 10.3998 24.6893 10.7861 24.2454C10.8748 24.0783 11.0748 24.0076 11.0918 23.7927C11.0918 23.7927 11.4393 23.3007 11.6466 23.1015C11.6931 23.0186 11.6248 22.8821 11.6706 22.7997C11.9882 22.175 12.5667 21.7454 13.0352 21.1779C13.1608 21.0586 13.251 20.8925 13.4469 20.8648C13.5274 20.8702 13.6021 20.877 13.6477 20.7949C13.741 20.5856 13.9061 20.4688 14.0281 20.3917C14.4805 20.0816 14.8593 19.6125 15.3725 19.5268C15.453 19.4883 15.4986 19.4076 15.5777 19.3688C15.6647 19.2893 15.8114 19.3887 15.8919 19.3519C16.2745 19.177 16.6246 18.8016 17.0179 18.7476C17.0981 18.7125 17.1432 18.6284 17.1811 18.631C17.53 18.661 17.9429 18.3479 18.27 18.6796C18.5653 18.6173 19.0066 18.6796 19.194 18.8421M21.8669 22.6259C21.8673 22.5824 21.8684 22.5395 21.8719 22.4966C21.7177 22.4014 21.6517 22.1388 21.4587 22.0868C21.4194 22.0853 21.3406 22.1246 21.3375 22.1673C21.3292 22.4271 21.4383 22.6055 21.546 22.8256C21.5916 22.6561 21.7067 22.662 21.7824 22.7935C21.8212 22.7537 21.8629 22.6696 21.867 22.6259L21.8669 22.6259Z" fill="white"/>
</g>
<g filter="url(#filter1_d_162_11622)">
<path d="M63.1893 23.296C63.1893 28.56 63.3013 30.8 63.8333 31.668C64.0573 32.004 64.3653 32.144 64.7013 32.144C65.0653 32.144 65.3733 32.004 65.5693 31.668C66.1293 30.8 66.2413 28.56 66.2413 23.296C66.2413 18.06 66.1293 15.82 65.5693 14.952C65.3733 14.616 65.0653 14.476 64.7013 14.476C64.3653 14.476 64.0573 14.616 63.8333 14.952C63.3013 15.82 63.1893 18.06 63.1893 23.296ZM59.4933 23.296C59.4933 17.024 59.9973 14.056 61.4533 12.432C62.1813 11.592 63.2733 11.144 64.7013 11.144C66.1573 11.144 67.2213 11.592 67.9773 12.432C69.2093 13.832 69.7693 16.268 69.9093 20.972H72.0653V11.256H75.7613V36.512H72.0653V24.332H69.9373C69.8813 29.932 69.3213 32.648 67.9773 34.188C67.2213 35.028 66.1573 35.448 64.7013 35.448C63.2733 35.448 62.1813 35.028 61.4533 34.188C59.9973 32.564 59.4933 29.596 59.4933 23.296ZM77.2733 36.82V11.116H80.9973V36.82H77.2733ZM103.232 22.232C101.048 22.68 98.5282 22.792 95.5042 22.792H86.7962V19.46H95.5602C98.3882 19.46 101.076 19.404 103.232 19.04V14.924H86.7962V11.564H107.068V21.252C107.068 24.388 106.76 27.384 106.368 29.428H102.56C102.952 27.44 103.204 24.612 103.232 22.232ZM85.5082 32.368H92.8162V25.032H96.6522V32.368H108.356V35.7H85.5082V32.368ZM129.611 14.924H113.035V11.564H133.447V20.048C133.447 23.184 133.195 26.6 132.691 29.12H128.883C129.387 26.656 129.611 23.24 129.611 20.552V14.924ZM111.887 32.368H134.735V35.7H111.887V32.368ZM142.746 23.716H151.678C153.834 23.716 155.094 23.436 155.962 22.792V11.116H159.798V29.736H155.962V25.76C155.094 26.516 153.526 26.908 150.614 26.908H138.938V17.528H148.066V14.588H138.938V11.424H151.874V20.692H142.746V23.716ZM140.422 36.932V28.42H144.258V33.6H160.246V36.932H140.422ZM171.841 29.652C170.525 32.172 167.501 34.216 164.421 35.112V31.584C167.389 30.24 169.937 27.888 169.937 20.664V11.424H173.773V20.664C173.773 27.888 176.321 30.24 179.261 31.584V35.112C176.181 34.216 173.185 32.144 171.841 29.652ZM186.149 36.82H182.313V23.436H176.685V20.104H182.313V11.116H186.149V36.82ZM192.06 15.316C192.06 14.196 192.48 13.356 193.292 12.74C194.86 11.508 197.996 11.116 202.476 11.116C206.984 11.116 210.092 11.508 211.688 12.74C212.472 13.356 212.892 14.196 212.892 15.316C212.892 16.408 212.472 17.248 211.688 17.892C210.092 19.124 206.984 19.516 202.476 19.516C197.996 19.516 194.86 19.124 193.292 17.892C192.48 17.248 192.06 16.408 192.06 15.316ZM195.896 15.316C195.896 15.512 196.008 15.708 196.26 15.848C197.016 16.296 199.116 16.408 202.476 16.408C205.836 16.408 207.936 16.296 208.72 15.848C208.944 15.708 209.056 15.512 209.056 15.316C209.056 15.092 208.944 14.924 208.72 14.756C207.936 14.308 205.836 14.196 202.476 14.196C199.116 14.196 197.016 14.308 196.26 14.756C196.008 14.924 195.896 15.092 195.896 15.316ZM200.544 25.396V23.884H190.884V20.664H214.012V23.884H204.324V25.396H212.388V32.788H196.344V33.992H212.976V37.1H192.508V29.708H208.552V28.504H192.508V25.396H200.544Z" fill="white"/>
</g>
<defs>
<filter id="filter0_d_162_11622" x="0" y="0" width="53" height="56.0004" filterUnits="userSpaceOnUse" color-interpolation-filters="sRGB">
<feFlood flood-opacity="0" result="BackgroundImageFix"/>
<feColorMatrix in="SourceAlpha" type="matrix" values="0 0 0 0 0 0 0 0 0 0 0 0 0 0 0 0 0 0 127 0" result="hardAlpha"/>
<feOffset dy="2"/>
<feGaussianBlur stdDeviation="5"/>
<feColorMatrix type="matrix" values="0 0 0 0 0.0980392 0 0 0 0 0.00392157 0 0 0 0 0.203922 0 0 0 0.12 0"/>
<feBlend mode="normal" in2="BackgroundImageFix" result="effect1_dropShadow_162_11622"/>
<feBlend mode="normal" in="SourceGraphic" in2="effect1_dropShadow_162_11622" result="shape"/>
</filter>
<filter id="filter1_d_162_11622" x="49.4932" y="3.116" width="174.519" height="45.984" filterUnits="userSpaceOnUse" color-interpolation-filters="sRGB">
<feFlood flood-opacity="0" result="BackgroundImageFix"/>
<feColorMatrix in="SourceAlpha" type="matrix" values="0 0 0 0 0 0 0 0 0 0 0 0 0 0 0 0 0 0 127 0" result="hardAlpha"/>
<feOffset dy="2"/>
<feGaussianBlur stdDeviation="5"/>
<feColorMatrix type="matrix" values="0 0 0 0 0.0980392 0 0 0 0 0.00392157 0 0 0 0 0.203922 0 0 0 0.12 0"/>
<feBlend mode="normal" in2="BackgroundImageFix" result="effect1_dropShadow_162_11622"/>
<feBlend mode="normal" in="SourceGraphic" in2="effect1_dropShadow_162_11622" result="shape"/>
</filter>
</defs>
</svg>
